<?xml version="1.0" encoding="UTF-8" standalone="no"?><svg xmlns="http://www.w3.org/2000/svg" xmlns:xlink="http://www.w3.org/1999/xlink" contentScriptType="application/ecmascript" contentStyleType="text/css" height="472px" preserveAspectRatio="none" style="width:1027px;height:472px;" version="1.1" viewBox="0 0 1027 472" width="1027px" zoomAndPan="magnify"><defs/><g><!--MD5=[e80bd461753d6c5ec111731420959425]
cluster Main--><path d="M703,44.5 L733,44.5 A4.5,4.5 0 0 1 736,47.5 L743,64.9844 L761,64.9844 A3,3 0 0 1 764,67.9844 L764,116.5 A3,3 0 0 1 761,119.5 L703,119.5 A3,3 0 0 1 700,116.5 L700,47.5 A3,3 0 0 1 703,44.5 " fill="#FFFFFF" style="stroke: #000000; stroke-width: 1.5;"/><line style="stroke: #000000; stroke-width: 1.5;" x1="700" x2="743" y1="64.9844" y2="64.9844"/><text fill="#000000" font-family="Tahoma, sans-serif" font-size="12" font-weight="bold" lengthAdjust="spacingAndGlyphs" textLength="30" x="704" y="58.5059">Main</text><!--MD5=[ed1d20ea533a2a0e7df5ba3c35e56ced]
cluster Controllers--><path d="M25,40 L99,40 A4.5,4.5 0 0 1 102,43 L109,60.4844 L673,60.4844 A3,3 0 0 1 676,63.4844 L676,121 A3,3 0 0 1 673,124 L25,124 A3,3 0 0 1 22,121 L22,43 A3,3 0 0 1 25,40 " fill="#FFFFFF" style="stroke: #000000; stroke-width: 1.5;"/><line style="stroke: #000000; stroke-width: 1.5;" x1="22" x2="109" y1="60.4844" y2="60.4844"/><text fill="#000000" font-family="Tahoma, sans-serif" font-size="12" font-weight="bold" lengthAdjust="spacingAndGlyphs" textLength="74" x="26" y="54.0059">Controllers</text><!--MD5=[6326b81c113285a9d7424a8f38b27174]
cluster Usecases--><path d="M54,148 L119,148 A4.5,4.5 0 0 1 122,151 L129,168.4844 L624,168.4844 A3,3 0 0 1 627,171.4844 L627,225 A3,3 0 0 1 624,228 L54,228 A3,3 0 0 1 51,225 L51,151 A3,3 0 0 1 54,148 " fill="#FFFFFF" style="stroke: #000000; stroke-width: 1.5;"/><line style="stroke: #000000; stroke-width: 1.5;" x1="51" x2="129" y1="168.4844" y2="168.4844"/><text fill="#000000" font-family="Tahoma, sans-serif" font-size="12" font-weight="bold" lengthAdjust="spacingAndGlyphs" textLength="65" x="55" y="162.0059">Usecases</text><!--MD5=[114f4823940f317c08f5bedd633c9afd]
cluster Entities--><path d="M504,261 L554,261 A4.5,4.5 0 0 1 557,264 L564,281.4844 L1012,281.4844 A3,3 0 0 1 1015,284.4844 L1015,457 A3,3 0 0 1 1012,460 L504,460 A3,3 0 0 1 501,457 L501,264 A3,3 0 0 1 504,261 " fill="#FFFFFF" style="stroke: #000000; stroke-width: 1.5;"/><line style="stroke: #000000; stroke-width: 1.5;" x1="501" x2="564" y1="281.4844" y2="281.4844"/><text fill="#000000" font-family="Tahoma, sans-serif" font-size="12" font-weight="bold" lengthAdjust="spacingAndGlyphs" textLength="50" x="505" y="275.0059">Entities</text><ellipse cx="731.7653" cy="90.7122" fill="#F8F8F8" rx="15.7653" ry="13.2122" style="stroke: #383838; stroke-width: 0.5;"/><text fill="#000000" font-family="Tahoma, sans-serif" font-size="12" lengthAdjust="spacingAndGlyphs" textLength="18" x="722.7653" y="94.4544">src</text><ellipse cx="586.0087" cy="90.6017" fill="#F8F8F8" rx="73.5087" ry="17.1017" style="stroke: #383838; stroke-width: 0.5;"/><text fill="#000000" font-family="Tahoma, sans-serif" font-size="12" font-weight="bold" lengthAdjust="spacingAndGlyphs" textLength="121" x="525.5087" y="94.3439">controllers/create</text><ellipse cx="425.0802" cy="90.516" fill="#F8F8F8" rx="73.0802" ry="17.016" style="stroke: #383838; stroke-width: 0.5;"/><text fill="#000000" font-family="Tahoma, sans-serif" font-size="12" font-weight="bold" lengthAdjust="spacingAndGlyphs" textLength="120" x="365.0802" y="94.2582">controllers/delete</text><ellipse cx="270.0172" cy="90.5034" fill="#F8F8F8" rx="68.0172" ry="16.0034" style="stroke: #383838; stroke-width: 0.5;"/><text fill="#000000" font-family="Tahoma, sans-serif" font-size="12" font-weight="bold" lengthAdjust="spacingAndGlyphs" textLength="108" x="216.0172" y="94.2456">controllers/read</text><ellipse cx="112.7999" cy="90.36" fill="#F8F8F8" rx="74.7999" ry="17.36" style="stroke: #383838; stroke-width: 0.5;"/><text fill="#000000" font-family="Tahoma, sans-serif" font-size="12" font-weight="bold" lengthAdjust="spacingAndGlyphs" textLength="124" x="50.7999" y="94.1022">controllers/update</text><ellipse cx="547.0267" cy="196.6053" fill="#F8F8F8" rx="63.5267" ry="15.1053" style="stroke: #383838; stroke-width: 0.5;"/><text fill="#000000" font-family="Tahoma, sans-serif" font-size="12" lengthAdjust="spacingAndGlyphs" textLength="97" x="498.5267" y="200.3475">usecases/create</text><ellipse cx="406.1268" cy="196.5254" fill="#F8F8F8" rx="63.1268" ry="15.0254" style="stroke: #383838; stroke-width: 0.5;"/><text fill="#000000" font-family="Tahoma, sans-serif" font-size="12" lengthAdjust="spacingAndGlyphs" textLength="96" x="358.1268" y="200.2675">usecases/delete</text><ellipse cx="270.2159" cy="196.7432" fill="#F8F8F8" rx="59.2159" ry="14.2432" style="stroke: #383838; stroke-width: 0.5;"/><text fill="#000000" font-family="Tahoma, sans-serif" font-size="12" lengthAdjust="spacingAndGlyphs" textLength="86" x="227.2159" y="200.4854">usecases/read</text><ellipse cx="132.2352" cy="196.347" fill="#F8F8F8" rx="64.7352" ry="15.347" style="stroke: #383838; stroke-width: 0.5;"/><text fill="#000000" font-family="Tahoma, sans-serif" font-size="12" lengthAdjust="spacingAndGlyphs" textLength="100" x="82.2352" y="200.0892">usecases/update</text><ellipse cx="740.7696" cy="307.242" fill="#F8F8F8" rx="39.7696" ry="13.242" style="stroke: #383838; stroke-width: 0.5;"/><text fill="#000000" font-family="Tahoma, sans-serif" font-size="12" lengthAdjust="spacingAndGlyphs" textLength="52" x="714.7696" y="310.9842">createDb</text><ellipse cx="547.0919" cy="307.242" fill="#F8F8F8" rx="22.0919" ry="13.242" style="stroke: #383838; stroke-width: 0.5;"/><text fill="#000000" font-family="Tahoma, sans-serif" font-size="12" lengthAdjust="spacingAndGlyphs" textLength="27" x="533.5919" y="310.9842">Item</text><!--MD5=[bb1f732844ca328f99920c2199c7388e]
entity _ItemDatabaseCosmosDB--><rect fill="#F8F8F8" height="34.4844" rx="3" ry="3" style="stroke: #000000; stroke-width: 0.5;" width="168" x="657" y="348"/><text fill="#000000" font-family="Tahoma, sans-serif" font-size="12" lengthAdjust="spacingAndGlyphs" textLength="148" x="667" y="370.0059">ItemDatabaseCosmosDB</text><!--MD5=[3c9816cdd5cf955808afd3010e9afefb]
entity _ItemDatabaseInMemory--><rect fill="#F8F8F8" height="34.4844" rx="3" ry="3" style="stroke: #000000; stroke-width: 0.5;" width="159" x="839.5" y="348"/><text fill="#000000" font-family="Tahoma, sans-serif" font-size="12" lengthAdjust="spacingAndGlyphs" textLength="139" x="849.5" y="370.0059">ItemDatabaseInMemory</text><!--MD5=[b9de1969b1072f9f565a6d0855422a46]
entity _itemSchema--><rect fill="#F8F8F8" height="34.4844" rx="3" ry="3" style="stroke: #000000; stroke-width: 0.5;" width="92" x="517" y="410"/><text fill="#000000" font-family="Tahoma, sans-serif" font-size="12" lengthAdjust="spacingAndGlyphs" textLength="72" x="527" y="432.0059">itemSchema</text><ellipse cx="588.1295" cy="364.9259" fill="#F8F8F8" rx="55.1295" ry="13.4259" style="stroke: #383838; stroke-width: 0.5;"/><text fill="#000000" font-family="Tahoma, sans-serif" font-size="12" lengthAdjust="spacingAndGlyphs" textLength="75" x="550.6295" y="368.6681">itemValidator</text><!--MD5=[5ef0f30cad8d8fbb947e492987413f0a]
link <b>controllers/create</b> to src--><path d="M659.57,90.5 C676.578,90.5 693.587,90.5 710.595,90.5 " fill="none" id="&lt;b&gt;controllers/create&lt;/b&gt;-&gt;src" style="stroke: #000000; stroke-width: 1.0;"/><polygon fill="#000000" points="715.873,90.5,706.873,86.5,710.873,90.5,706.873,94.5,715.873,90.5" style="stroke: #000000; stroke-width: 1.0;"/><!--MD5=[b6826c620bfa15524a104be9268de5dd]
link <b>controllers/create</b> to usecases/create--><path d="M579.906,107.75 C572.915,126.394 561.467,156.921 554.085,176.608 " fill="none" id="&lt;b&gt;controllers/create&lt;/b&gt;-&gt;usecases/create" style="stroke: #000000; stroke-width: 1.0;"/><polygon fill="#000000" points="552.3,181.366,559.205,174.3431,554.0553,176.6842,551.7141,171.5346,552.3,181.366" style="stroke: #000000; stroke-width: 1.0;"/><!--MD5=[8297ef9dcd5f7777075ae0c33243571a]
link <b>controllers/delete</b> to src--><path d="M438.601,73.716 C454.172,55.969 481.497,29.044 512,18 C543.76,6.501 633.004,4.576 664,18 C690.423,29.444 711.29,56.77 722.618,74.413 " fill="none" id="&lt;b&gt;controllers/delete&lt;/b&gt;-&gt;src" style="stroke: #000000; stroke-width: 1.0;"/><polygon fill="#000000" points="725.291,78.674,723.8991,68.924,722.635,74.4378,717.1212,73.1736,725.291,78.674" style="stroke: #000000; stroke-width: 1.0;"/><!--MD5=[8e68cca723431aeabd66a405d07143e1]
link <b>controllers/delete</b> to usecases/delete--><path d="M422.031,107.75 C418.64,126.315 413.095,156.662 409.497,176.357 " fill="none" id="&lt;b&gt;controllers/delete&lt;/b&gt;-&gt;usecases/delete" style="stroke: #000000; stroke-width: 1.0;"/><polygon fill="#000000" points="408.582,181.366,414.1343,173.2314,409.4806,176.4474,406.2646,171.7937,408.582,181.366" style="stroke: #000000; stroke-width: 1.0;"/><!--MD5=[482b87ccf5ee37fc31cb07b890c2537c]
link <b>controllers/read</b> to src--><path d="M281.823,74.697 C296.16,56.996 322.145,29.306 352,18 C384.42,5.723 632.189,4.223 664,18 C690.423,29.444 711.29,56.77 722.618,74.413 " fill="none" id="&lt;b&gt;controllers/read&lt;/b&gt;-&gt;src" style="stroke: #000000; stroke-width: 1.0;"/><polygon fill="#000000" points="725.291,78.674,723.8991,68.924,722.635,74.4378,717.1212,73.1736,725.291,78.674" style="stroke: #000000; stroke-width: 1.0;"/><!--MD5=[61a4040de2f77abe5bb41d7820d4e129]
link <b>controllers/read</b> to usecases/read--><path d="M270,106.846 C270,125.622 270,157.37 270,177.343 " fill="none" id="&lt;b&gt;controllers/read&lt;/b&gt;-&gt;usecases/read" style="stroke: #000000; stroke-width: 1.0;"/><polygon fill="#000000" points="270,182.397,274,173.397,270,177.397,266,173.397,270,182.397" style="stroke: #000000; stroke-width: 1.0;"/><!--MD5=[bc8ef5e08eda328bbd9b966f17464af7]
link <b>controllers/update</b> to src--><path d="M127.586,73.058 C143.682,55.303 171.394,28.888 202,18 C226.182,9.397 640.447,7.799 664,18 C690.423,29.444 711.29,56.77 722.618,74.413 " fill="none" id="&lt;b&gt;controllers/update&lt;/b&gt;-&gt;src" style="stroke: #000000; stroke-width: 1.0;"/><polygon fill="#000000" points="725.291,78.674,723.8991,68.924,722.635,74.4378,717.1212,73.1736,725.291,78.674" style="stroke: #000000; stroke-width: 1.0;"/><!--MD5=[4b41f8754432b9769b904a2a8ca85892]
link <b>controllers/update</b> to usecases/update--><path d="M116.053,108.209 C119.409,126.579 124.797,156.073 128.368,175.618 " fill="none" id="&lt;b&gt;controllers/update&lt;/b&gt;-&gt;usecases/update" style="stroke: #000000; stroke-width: 1.0;"/><polygon fill="#000000" points="129.323,180.849,131.6404,171.2767,128.4244,175.9304,123.7707,172.7144,129.323,180.849" style="stroke: #000000; stroke-width: 1.0;"/><!--MD5=[e47009d06af9b95fea47bf8ec49674af]
link createDb to _ItemDatabaseCosmosDB--><path d="M741,320.151 C741,326.738 741,335.069 741,342.695 " fill="none" id="createDb-&gt;_ItemDatabaseCosmosDB" style="stroke: #000000; stroke-width: 0.5; stroke-dasharray: 7.0,7.0;"/><polygon fill="#000000" points="741,347.833,745,338.833,741,342.833,737,338.833,741,347.833" style="stroke: #000000; stroke-width: 0.5;"/><!--MD5=[a9d8a4e054db1c5e4316cc572cf4808f]
link createDb to _ItemDatabaseInMemory--><path d="M768.422,316.627 C793.508,324.519 831.396,336.439 862.89,346.348 " fill="none" id="createDb-&gt;_ItemDatabaseInMemory" style="stroke: #000000; stroke-width: 0.5; stroke-dasharray: 7.0,7.0;"/><polygon fill="#000000" points="867.887,347.92,860.5038,341.4017,863.1178,346.4184,858.1012,349.0324,867.887,347.92" style="stroke: #000000; stroke-width: 0.5;"/><!--MD5=[192fd8f94b35fe2e4800c2f5e4a1358e]
link Item to _itemSchema--><path d="M539.166,319.3 C534.321,327.001 528.553,337.643 526,348 C522.383,362.672 520.824,367.803 526,382 C529.231,390.8613 535.118,399.1761 541.26,406.1404 " fill="none" id="Item-&gt;_itemSchema" style="stroke: #000000; stroke-width: 0.5; stroke-dasharray: 7.0,7.0;"/><polygon fill="#000000" points="544.684,409.8654,541.539,400.5322,541.3006,406.184,535.6488,405.9456,544.684,409.8654" style="stroke: #000000; stroke-width: 0.5;"/><!--MD5=[ca76c06238673fbf3f29c7f9c0e41d6e]
link Item to itemValidator--><path d="M555.297,319.332 C561.169,327.352 569.14,338.241 575.743,347.259 " fill="none" id="Item-&gt;itemValidator" style="stroke: #000000; stroke-width: 0.5; stroke-dasharray: 7.0,7.0;"/><polygon fill="#000000" points="578.859,351.515,576.7689,341.8905,575.9049,347.481,570.3144,346.617,578.859,351.515" style="stroke: #000000; stroke-width: 0.5;"/><!--MD5=[75a80f08ac2c4e70c03190cc62d24824]
link itemValidator to _itemSchema--><path d="M582.698,378.7245 C579.505,386.3869 575.362,396.3303 571.7,405.1195 " fill="none" id="itemValidator-&gt;_itemSchema" style="stroke: #000000; stroke-width: 0.5; stroke-dasharray: 7.0,7.0;"/><polygon fill="#000000" points="569.724,409.8619,576.8778,403.0926,571.647,405.2465,569.4931,400.0157,569.724,409.8619" style="stroke: #000000; stroke-width: 0.5;"/><!--MD5=[9452e69a8327ce7b22d6ebdb854dfc33]
link src to createDb--><path d="M732.51,103.647 C734.029,139.853 738.529,247.11 740.286,288.983 " fill="none" id="src-&gt;createDb" style="stroke: #000000; stroke-width: 0.5;"/><polygon fill="#000000" points="740.496,293.986,744.1145,284.8259,740.286,288.9904,736.1215,285.1619,740.496,293.986" style="stroke: #000000; stroke-width: 0.5;"/><!--MD5=[154971a0ee43406a988bb006c9376196]
link usecases/create to Item--><path d="M547,211.684 C547,231.489 547,267.39 547,288.728 " fill="none" id="usecases/create-&gt;Item" style="stroke: #000000; stroke-width: 0.5;"/><polygon fill="#000000" points="547,293.82,551,284.82,547,288.82,543,284.82,547,293.82" style="stroke: #000000; stroke-width: 0.5;"/><!--MD5=[8ed3d3b1cfa72f5b40453ed23b2aaeaf]
link usecases/create to _itemSchema--><path d="M537.348,211.344 C530.442,222.136 521.733,237.797 518,253 C504.328,308.686 497.508,329.255 520,382 C523.888,391.1188 530.609,399.409 537.598,406.2729 " fill="none" id="usecases/create-&gt;_itemSchema" style="stroke: #000000; stroke-width: 0.5;"/><polygon fill="#000000" points="541.492,409.9356,537.6769,400.8557,537.85,406.5099,532.1958,406.6829,541.492,409.9356" style="stroke: #000000; stroke-width: 0.5;"/><script type="text/plantuml"><![CDATA[MD5=[2220aa66604537b130108d0a0ce77ca7]
@startuml

scale max 1920 width
top to bottom direction

skinparam nodesep 14
skinparam ranksep 28
skinparam monochrome true
skinparam shadowing false
skinparam defaultFontName Tahoma
skinparam defaultFontSize 12
skinparam roundCorner 6
skinparam dpi 150
skinparam arrowColor black
skinparam arrowThickness 0.5
skinparam packageTitleAlignment left

skinparam usecase {
  borderThickness 0.5
}

skinparam rectangle {
  borderThickness 0.5
}

skinparam component {
  borderThickness 1
}


package "Main" {
  (src)
}

package "Controllers" {
  (<b>controllers/create</b>)
  (<b>controllers/delete</b>)
  (<b>controllers/read</b>)
  (<b>controllers/update</b>)
}

package "Usecases" {
  (usecases/create)
  (usecases/delete)
  (usecases/read)
  (usecases/update)
}

package "Entities" {
  (createDb)
  (Item)
  rectangle "ItemDatabaseCosmosDB" as _ItemDatabaseCosmosDB
  rectangle "ItemDatabaseInMemory" as _ItemDatabaseInMemory
  rectangle "itemSchema" as _itemSchema
  (itemValidator)
}

(<b>controllers/create</b>) -[thickness=1]> (src)
(<b>controllers/create</b>) --[thickness=1]> (usecases/create)
(<b>controllers/delete</b>) -[thickness=1]> (src)
(<b>controllers/delete</b>) --[thickness=1]> (usecases/delete)
(<b>controllers/read</b>) -[thickness=1]> (src)
(<b>controllers/read</b>) --[thickness=1]> (usecases/read)
(<b>controllers/update</b>) -[thickness=1]> (src)
(<b>controllers/update</b>) --[thickness=1]> (usecases/update)
(createDb) ..> _ItemDatabaseCosmosDB
(createDb) ..> _ItemDatabaseInMemory
(Item) ..> _itemSchema
(Item) ..> (itemValidator)
(itemValidator) ..> _itemSchema
(src) --> (createDb)
(usecases/create) ---> (Item)
(usecases/create) ---> _itemSchema

@enduml


' View and edit on https://arkit.pro
]]></script></g></svg>